<?xml version="1.0" encoding="utf-8"?>
<!-- Generator: Adobe Illustrator 23.0.4, SVG Export Plug-In . SVG Version: 6.00 Build 0)  -->
<svg version="1.1" id="Layer_1" xmlns="http://www.w3.org/2000/svg" xmlns:xlink="http://www.w3.org/1999/xlink" x="0px" y="0px"
	 viewBox="0 0 25 25" style="enable-background:new 0 0 25 25;" xml:space="preserve">
<style type="text/css">
	.st0{fill:#142F54;}
</style>
<g>
	<g>
		<path class="st0" d="M17.86,1.78l-2.78,0c-3.12,0-5.14,2.07-5.14,5.28v2.43h-2.8C6.9,9.49,6.7,9.68,6.7,9.93v3.53
			c0,0.24,0.2,0.44,0.44,0.44h2.8v8.9c0,0.24,0.2,0.44,0.44,0.44h3.65c0.24,0,0.44-0.2,0.44-0.44v-8.9h3.27
			c0.24,0,0.44-0.2,0.44-0.44l0-3.53c0-0.12-0.05-0.23-0.13-0.31c-0.08-0.08-0.19-0.13-0.31-0.13h-3.27V7.43
			c0-0.99,0.24-1.49,1.53-1.49l1.87,0c0.24,0,0.44-0.2,0.44-0.44V2.22C18.3,1.98,18.1,1.78,17.86,1.78L17.86,1.78z M17.86,1.78"/>
	</g>
</g>
</svg>
