<?xml version="1.0" encoding="utf-8"?>
<!-- Generator: Adobe Illustrator 23.0.4, SVG Export Plug-In . SVG Version: 6.00 Build 0)  -->
<svg version="1.1" id="Layer_1" xmlns="http://www.w3.org/2000/svg" xmlns:xlink="http://www.w3.org/1999/xlink" x="0px" y="0px"
	 viewBox="0 0 25 25" style="enable-background:new 0 0 25 25;" xml:space="preserve">
<style type="text/css">
	.st0{fill:#142F54;}
</style>
<g>
	<path class="st0" d="M23.67,14.91v8.26h-4.79v-7.71c0-1.94-0.69-3.26-2.43-3.26c-1.32,0-2.11,0.89-2.46,1.75
		c-0.13,0.31-0.16,0.74-0.16,1.17v8.05H9.05c0,0,0.06-13.06,0-14.41h4.79v2.04c-0.01,0.02-0.02,0.03-0.03,0.05h0.03v-0.05
		c0.64-0.98,1.77-2.38,4.32-2.38C21.31,8.43,23.67,10.49,23.67,14.91L23.67,14.91z M4.04,1.82c-1.64,0-2.71,1.08-2.71,2.49
		c0,1.38,1.04,2.49,2.65,2.49h0.03c1.67,0,2.71-1.11,2.71-2.49C6.68,2.9,5.68,1.82,4.04,1.82L4.04,1.82z M1.61,23.18H6.4V8.77H1.61
		V23.18z M1.61,23.18"/>
</g>
</svg>
