<?xml version="1.0" encoding="utf-8"?>
<!-- Generator: Adobe Illustrator 25.1.0, SVG Export Plug-In . SVG Version: 6.00 Build 0)  -->
<svg version="1.1" id="Layer_1" xmlns="http://www.w3.org/2000/svg" xmlns:xlink="http://www.w3.org/1999/xlink" x="0px" y="0px"
	 viewBox="0 0 1200 185" style="enable-background:new 0 0 1200 185;" xml:space="preserve">
<style type="text/css">
	.st0{fill:#152E54;}
	.st1{fill:#898989;}
</style>
<g>
	<g>
		<g>
			<path class="st0" d="M80.6,11.6C73.5,9.1,62.5,7.8,47,7.8H23.6v105.7h34.5c12.9,0,23.1-1.9,30.4-5.8c7.4-3.9,13.4-9.9,18-18
				c4.6-8,6.9-17.4,6.9-27.9c0-12.1-2.9-22.7-8.7-31.5C99,21.5,90.9,15.2,80.6,11.6z M38.3,22.8h4.6c14.1,0,24.3,0.9,30.4,2.8
				c7.8,2.4,13.9,6.8,18.3,13.1c4.4,6.4,6.6,14.3,6.6,23.4c0,8.7-2,16.1-6.1,22c-4,5.9-9.5,10-16.5,12.3C70.5,98,61,98.9,47.5,98.9
				h-9.1L38.3,22.8L38.3,22.8z"/>
			<path class="st0" d="M167.4,7.9l-49.9,105.7h16.9l15.7-33.1h40.1l15.8,33.1h16.5L173.1,7.9H167.4z M183.3,65.6H157l13.2-27.9
				L183.3,65.6z"/>
			<polygon class="st0" points="270.6,81.7 238.9,7.9 222.4,7.9 267.7,113.5 273.3,113.5 319.2,7.9 302.7,7.9 			"/>
			<rect x="329.7" y="7.9" class="st0" width="15.2" height="105.7"/>
			<path class="st0" d="M421.1,11.6C414,9.1,403,7.8,387.5,7.8h-23.4v105.7h34.5c12.9,0,23.1-1.9,30.4-5.8c7.4-3.9,13.4-9.9,18-18
				c4.6-8,6.9-17.4,6.9-27.9c0-12.1-2.9-22.7-8.6-31.5C439.5,21.5,431.4,15.2,421.1,11.6z M378.9,22.8h4.6c14.1,0,24.3,0.9,30.4,2.8
				c7.8,2.4,13.9,6.8,18.3,13.1c4.4,6.4,6.6,14.3,6.6,23.4c0,8.7-2,16.1-6.1,22c-4,6-9.4,10-16.5,12.3c-5.1,1.6-14.6,2.5-28.1,2.5
				H379L378.9,22.8L378.9,22.8z"/>
			<path class="st0" d="M499.5,52.1c-9-6.6-11.9-9-12.7-9.8c-2.2-2.2-3.7-4.2-4.5-5.9c-0.8-1.7-1.1-3.5-1.1-5.3c0-2.9,1-5.3,3.1-7.2
				c2.1-2,4.8-3,8.2-3c2.7,0,5.1,0.7,7.4,2c2.4,1.4,5.4,4.5,8.9,9.3l1.5,2l12.2-9.3l-1.5-2c-4.9-6.6-9.4-11.1-13.9-13.7
				s-9.4-3.9-14.6-3.9c-4.9,0-9.5,1.2-13.6,3.4c-4.2,2.3-7.5,5.5-9.8,9.5s-3.5,8.4-3.5,13.2c0,6.1,2,11.7,5.8,16.9
				c2.2,3.1,7.5,7.7,16.2,14.3c8.1,6.1,13.7,11.3,16.7,15.6c2,2.8,3,5.6,3,8.4c0,2.5-0.6,4.9-2,7.1c-1.3,2.2-3.2,4-5.8,5.4
				c-2.6,1.4-5.4,2.1-8.3,2.1c-6.8,0-13.1-5.1-18.6-15.3l-1.3-2.3l-12.9,7.8l1.2,2.2c4.4,8,9.3,13.8,14.6,17.3
				c5.4,3.5,11.4,5.3,18,5.3c8.6,0,16-3,22-8.8s9.1-12.9,9.1-20.8c0-5.5-1.8-11.1-5.3-16.5C514.6,64.6,508.5,58.8,499.5,52.1z"/>
			<path class="st0" d="M591.3,5.3c-9.8,0-19.1,2.5-27.5,7.4S548.6,24.4,543.7,33c-4.9,8.6-7.3,18.1-7.3,28.1
				c0,15.1,5.4,28.2,16.1,38.9c10.7,10.7,24,16.1,39.6,16.1c15.4,0,28.6-5.4,39.3-16.1c10.7-10.7,16.1-23.9,16.1-39.3
				c0-15.5-5.4-28.7-16.1-39.3C620.6,10.7,607.2,5.3,591.3,5.3z M632,60.6c0,7.6-1.8,14.5-5.2,20.6c-3.5,6.1-8.4,11-14.6,14.6
				c-6.2,3.5-13.1,5.3-20.4,5.3c-11.1,0-20.3-3.8-28.2-11.6S551.9,72.4,551.9,61c0-7.6,1.8-14.6,5.3-20.7s8.4-11.1,14.7-14.7
				c6.2-3.6,12.9-5.5,19.9-5.5c7.1,0,13.9,1.8,20.2,5.5c6.3,3.6,11.3,8.5,14.8,14.6C630.2,46.3,632,53.1,632,60.6z"/>
			<polygon class="st0" points="733.2,80.7 669.9,7.9 664,7.9 664,113.5 679.5,113.5 679.5,41.6 742.2,113.5 748.2,113.5 748.2,7.9 
				733.2,7.9 			"/>
			<path class="st0" d="M893.8,99.6c-3.3-3.3-6.2-6.1-8.5-8.3c3.3-2.5,6.7-5.3,10.2-8.4l2-1.7l-10.3-11l-1.9,1.7
				c-2.7,2.4-6.2,5.3-10.7,8.6l-8.4-8.5l-13.5-14c6.1-5.3,10.2-9.7,12.5-13.4c2.6-4.2,3.9-8.3,3.9-12.1c0-3.7-1.1-7.2-3.1-10.4
				c-2.1-3.2-5.1-5.8-9-7.7c-3.8-1.9-8-2.8-12.6-2.8c-7.3,0-13.4,2.1-18.3,6.3c-4.5,3.8-6.7,8.6-6.7,14.4c0,3.3,0.9,6.7,2.6,10.2
				c1.5,3,4.6,7.4,9.3,13.2c-8.9,7.2-14.8,13.2-17.9,18.1c-3.4,5.4-5.1,10.9-5.1,16.4c0,7.4,2.6,13.6,7.8,18.5s12,7.4,20.4,7.4
				c6.1,0,12-1.1,17.5-3.3c5.1-2,11.5-6,19.3-12.1l12.5,12.9h20.6l-3.6-4.2C900.4,106.4,897.3,103.1,893.8,99.6z M837.6,101.5
				c-4.1,0-7.4-1.2-10.2-3.8c-2.7-2.5-4-5.2-4-8.3c0-2.7,1.2-5.8,3.5-9.1s7.1-7.8,14.3-13.3c2.8,3.1,5.3,6,7.7,8.4l13.9,14.3
				c-5.9,4.5-11.1,7.8-15.7,9.8C844,100.9,840.8,101.5,837.6,101.5z M843.1,46.7c-3.2-3.8-5.7-7.3-7.6-10.5c-0.7-1.2-1-2.5-1-3.9
				c0-1,0.2-2.5,2.4-4.1c1.8-1.4,4.2-2.1,7.2-2.1c3.2,0,5.7,0.7,7.5,2c2.1,1.6,2.4,3,2.4,4c0,1.5-0.7,3.3-2.2,5.5
				C849.7,40.6,846.8,43.7,843.1,46.7z"/>
			<path class="st0" d="M1041.3,85.8c-9.1,10.5-20,15.7-33.4,15.7c-12.2,0-22.1-3.8-30-11.6c-8-7.8-11.8-17.2-11.8-28.9
				c0-7.6,1.8-14.6,5.3-20.6c3.5-6.1,8.5-11,14.9-14.6s13.5-5.4,21-5.4c6.9,0,13.3,1.4,19.1,4.2c5.7,2.8,10.7,6.9,14.8,12.2l1.6,2
				l11.9-9.1l-1.4-2c-5.1-7-11.6-12.5-19.5-16.4s-16.8-5.8-26.6-5.8c-16.2,0-29.8,5.3-40.6,15.8s-16.3,23.6-16.3,39
				c0,14.6,4.5,27.2,13.4,37.5c10.6,12.2,25.3,18.5,43.6,18.5c9.6,0,18.4-1.8,26.2-5.5c7.8-3.6,14.5-8.9,19.7-15.5l1.6-2l-11.9-9
				L1041.3,85.8z"/>
			<path class="st0" d="M1160.2,21.3c-10.7-10.6-24.2-16-40-16c-9.8,0-19.1,2.5-27.5,7.4s-15.2,11.7-20.1,20.3s-7.3,18.1-7.3,28.1
				c0,15.1,5.4,28.2,16.1,38.9s24,16.1,39.6,16.1c15.4,0,28.6-5.4,39.3-16.1c10.7-10.7,16.1-23.9,16.1-39.3
				C1176.4,45.2,1171,31.9,1160.2,21.3z M1160.9,60.6c0,7.5-1.8,14.5-5.3,20.6c-3.5,6.1-8.4,11-14.6,14.6
				c-6.2,3.5-13.1,5.3-20.4,5.3c-11.1,0-20.3-3.8-28.2-11.6c-7.9-7.8-11.7-17.1-11.7-28.5c0-7.6,1.8-14.6,5.3-20.7
				s8.4-11.1,14.7-14.7c6.2-3.6,12.9-5.5,19.9-5.5c7.1,0,13.9,1.8,20.2,5.5c6.3,3.6,11.3,8.5,14.8,14.6
				C1159.1,46.3,1160.9,53.1,1160.9,60.6z"/>
		</g>
	</g>
</g>
<g>
	<path class="st1" d="M27.6,174.5h9.8v3.7H23.6V146h4V174.5z"/>
	<path class="st1" d="M77,170.1l-3.7,8.1H69l15.3-33.5l15.3,33.5h-4.3l-3.7-8.1H77z M84.3,153.4l-5.7,13H90L84.3,153.4z"/>
	<path class="st1" d="M140.2,169l9.1-23.7l9.1,23.7l9-23h4.3l-13.3,33.4l-9.1-23.6l-9.1,23.6L126.9,146h4.3L140.2,169z"/>
	<path class="st1" d="M255.3,149.7v9h11.2v3.7h-11.2v15.8h-4V146h15.5v3.7H255.3z"/>
	<path class="st1" d="M307.8,178.1h-4V146h4V178.1z"/>
	<path class="st1" d="M366.1,178.1h-4.9l-9.5-13.6H350v13.6h-4V146h4.9c2.9,0,5.9,0,8.5,1.5c2.7,1.6,4.2,4.6,4.2,7.7
		c0,4.6-3.1,8.4-7.7,9L366.1,178.1z M350.1,161.2h1.3c4.1,0,8.5-0.8,8.5-5.9c0-5-4.8-5.8-8.7-5.8h-1.1L350.1,161.2L350.1,161.2z"/>
	<path class="st1" d="M407.1,156.9L407.1,156.9l-3.8,21.2h-4.1l6.6-33.5l11,25.3l11-25.3l6.6,33.5h-4.1l-3.7-21.2h-0.1l-9.6,21.9
		L407.1,156.9z"/>
</g>
</svg>
