<?xml version="1.0" encoding="utf-8"?>
<!-- Generator: Adobe Illustrator 23.0.4, SVG Export Plug-In . SVG Version: 6.00 Build 0)  -->
<svg version="1.1" id="Layer_1" xmlns="http://www.w3.org/2000/svg" xmlns:xlink="http://www.w3.org/1999/xlink" x="0px" y="0px"
	 viewBox="0 0 25 25" style="enable-background:new 0 0 25 25;" xml:space="preserve">
<style type="text/css">
	.st0{fill:#142F54;}
</style>
<g>
	<path class="st0" d="M24.07,5.34c-0.91,0.39-1.82,0.64-2.73,0.73c1.03-0.62,1.72-1.49,2.09-2.61c-0.94,0.56-1.94,0.94-3.01,1.14
		c-0.94-1-2.09-1.5-3.47-1.5c-1.31,0-2.43,0.46-3.35,1.39c-0.92,0.92-1.39,2.04-1.39,3.35c0,0.35,0.04,0.71,0.12,1.09
		c-1.94-0.1-3.76-0.59-5.45-1.46c-1.7-0.88-3.14-2.04-4.32-3.5C2.12,4.7,1.9,5.5,1.9,6.36c0,0.81,0.19,1.57,0.57,2.26
		c0.38,0.69,0.9,1.26,1.54,1.69c-0.76-0.03-1.48-0.23-2.14-0.6v0.06c0,1.14,0.36,2.15,1.08,3.02c0.72,0.87,1.63,1.41,2.72,1.64
		c-0.41,0.11-0.83,0.16-1.25,0.16c-0.27,0-0.57-0.02-0.9-0.07c0.3,0.95,0.86,1.73,1.67,2.34c0.81,0.61,1.73,0.93,2.76,0.95
		c-1.72,1.35-3.69,2.03-5.89,2.03c-0.42,0-0.8-0.02-1.15-0.06c2.2,1.42,4.63,2.13,7.28,2.13c1.68,0,3.26-0.27,4.74-0.8
		c1.48-0.53,2.74-1.25,3.79-2.14c1.05-0.9,1.95-1.93,2.71-3.09c0.76-1.16,1.32-2.38,1.7-3.65c0.37-1.27,0.56-2.54,0.56-3.81
		c0-0.27-0.01-0.48-0.02-0.62C22.62,7.11,23.41,6.29,24.07,5.34L24.07,5.34z M24.07,5.34"/>
</g>
</svg>
